# xmcd CD database file
#
# Track frame offsets:
#	150
#	26139
#	44927
#	63537
#	85740
#	107715
#	126799
#	143535
#	158529
#	176807
#	196237
#	214109
#	234718
#	252442
#	271441
#	289278
#	304857
#
# Disc length: 4295 seconds
#
# Revision: 0
# Processed by: cddbd v1.5.1PL2 Copyright (c) Steve Scherf et al.
# Submitted via: CDex 1.51
#
DISCID=0310c511
DTITLE=影山ヒロノブ・その他 - ドラゴンボールZ ベスト ダング コレクション[DISC 2]
DYEAR=2006
DGENRE=Anime
TTITLE0=黄金のコンパス /影山ヒロノブ
TTITLE1=アクアリウムの夜 /石原慎一・CHIHO
TTITLE2=Cool Cool ダンディ /石原慎一
TTITLE3=運命の日〜魂VS魂〜 /影山ヒロノブ
TTITLE4=夜明けの子供たち /KUKO
TTITLE5=FOR EVER〜 /影山ヒロノブ
TTITLE6=青い風のHOPE /影山ヒロノブ
TTITLE7=バーニング・ファイト-熱戦・烈戦・超激戦- /影山ヒロノブ・YUKA
TTITLE8=銀河を超えてライジング・ハイ /影山ヒロノブ
TTITLE9=飛び出せ!ヒーロー /KUKO
TTITLE10=WE GOTTA POWER /影山ヒロノブ
TTITLE11=君の空へ /影山ヒロノブ・石原慎一・KUKO
TTITLE12=奇蹟のビッグ・ファイト /影山ヒロノブ
TTITLE13=ドラゴンパワー∞ /影山ヒロノブ
TTITLE14=最強のフュージョン /影山ヒロノブ
TTITLE15=俺がやらなきゃ誰がやる /影山ヒロノブ
TTITLE16=僕達は天使だった /影山ヒロノブ
EXTD=YEAR: 2006
EXTT0=
EXTT1=
EXTT2=
EXTT3=
EXTT4=
EXTT5=
EXTT6=
EXTT7=
EXTT8=
EXTT9=
EXTT10=
EXTT11=
EXTT12=
EXTT13=
EXTT14=
EXTT15=
EXTT16=
PLAYORDER=
